<svg width="40" height="41" viewBox="0 0 40 41" fill="none" xmlns="http://www.w3.org/2000/svg">
<rect y="0.75" width="40" height="40" rx="4" fill="#F3AD3D" fill-opacity="0.1"/>
<g clip-path="url(#clip0_270_4149)">
<path opacity="0.3" fill-rule="evenodd" clip-rule="evenodd" d="M10.9736 11.8563L31.3654 17.3203C31.9581 17.4791 32.3099 18.0883 32.1511 18.6811L29.2753 29.4136C29.1165 30.0063 28.5072 30.3581 27.9145 30.1993L7.52272 24.7353C6.92998 24.5765 6.57822 23.9672 6.73705 23.3745L9.61281 12.642C9.77164 12.0492 10.3809 11.6975 10.9736 11.8563ZM18.2938 25.3208C20.6647 25.9561 23.1018 24.5491 23.7371 22.1781C24.3724 19.8071 22.9653 17.3701 20.5944 16.7348C18.2234 16.0995 15.7864 17.5065 15.1511 19.8775C14.5158 22.2484 15.9228 24.6855 18.2938 25.3208Z" fill="#F3AD3D"/>
<path fill-rule="evenodd" clip-rule="evenodd" d="M8.88845 14.3611H29.9996C30.6132 14.3611 31.1107 14.8585 31.1107 15.4722V26.5833C31.1107 27.197 30.6132 27.6944 29.9996 27.6944H8.88845C8.27481 27.6944 7.77734 27.197 7.77734 26.5833V15.4722C7.77734 14.8585 8.27481 14.3611 8.88845 14.3611ZM19.444 25.4722C21.8986 25.4722 23.8885 23.4823 23.8885 21.0278C23.8885 18.5732 21.8986 16.5833 19.444 16.5833C16.9894 16.5833 14.9996 18.5732 14.9996 21.0278C14.9996 23.4823 16.9894 25.4722 19.444 25.4722ZM19.444 23.25C20.6713 23.25 21.6662 22.255 21.6662 21.0278C21.6662 19.8005 20.6713 18.8055 19.444 18.8055C18.2167 18.8055 17.2218 19.8005 17.2218 21.0278C17.2218 22.255 18.2167 23.25 19.444 23.25Z" fill="#F3AD3D"/>
</g>
<defs>
<clipPath id="clip0_270_4149">
<rect width="26.6667" height="26.6667" fill="white" transform="translate(6.66699 7.69446)"/>
</clipPath>
</defs>
</svg>
