<svg width="40" height="41" viewBox="0 0 40 41" fill="none" xmlns="http://www.w3.org/2000/svg">
<rect y="0.75" width="40" height="40" rx="3.99974" fill="#50B6D5" fill-opacity="0.1"/>
<g clip-path="url(#clip0_270_4138)">
<path opacity="0.3" fill-rule="evenodd" clip-rule="evenodd" d="M13.3328 9.91602H26.6661C27.2798 9.91602 27.7772 10.4135 27.7772 11.0271V21.0271C27.7772 21.6408 27.2798 22.1382 26.6661 22.1382H13.3328C12.7191 22.1382 12.2217 21.6408 12.2217 21.0271V11.0271C12.2217 10.4135 12.7191 9.91602 13.3328 9.91602ZM14.9995 13.2493C14.6926 13.2493 14.4439 13.4981 14.4439 13.8049C14.4439 14.1117 14.6926 14.3605 14.9995 14.3605H21.6661C21.9729 14.3605 22.2217 14.1117 22.2217 13.8049C22.2217 13.4981 21.9729 13.2493 21.6661 13.2493H14.9995ZM14.9995 15.4716C14.6926 15.4716 14.4439 15.7203 14.4439 16.0271C14.4439 16.334 14.6926 16.5827 14.9995 16.5827H18.3328C18.6396 16.5827 18.8883 16.334 18.8883 16.0271C18.8883 15.7203 18.6396 15.4716 18.3328 15.4716H14.9995Z" fill="#50B6D5"/>
<path fill-rule="evenodd" clip-rule="evenodd" d="M10.8799 14.9966L19.999 21.5826L29.1182 14.9966C29.3669 14.8169 29.7142 14.8729 29.8938 15.1217C29.9622 15.2164 29.999 15.3302 29.999 15.447V26.5826C29.999 27.8099 29.0041 28.8049 27.7768 28.8049H12.2212C10.9939 28.8049 9.99902 27.8099 9.99902 26.5826V15.447C9.99902 15.1401 10.2478 14.8914 10.5546 14.8914C10.6714 14.8914 10.7852 14.9282 10.8799 14.9966Z" fill="#50B6D5"/>
</g>
<defs>
<clipPath id="clip0_270_4138">
<rect width="26.6667" height="26.6667" fill="white" transform="translate(6.66602 7.69458)"/>
</clipPath>
</defs>
</svg>
