<svg width="40" height="41" viewBox="0 0 40 41" fill="none" xmlns="http://www.w3.org/2000/svg">
<rect y="0.75" width="40" height="40" rx="4" fill="#ED6240" fill-opacity="0.1"/>
<g clip-path="url(#clip0_270_4160)">
<path opacity="0.3" d="M12.0625 8.80554H19.7061C20.1002 8.80554 20.4816 8.94519 20.7825 9.1997L26.0754 13.6766C26.4497 13.9933 26.6657 14.4587 26.6657 14.9491V28.8981C26.6657 30.8876 26.643 31.0278 24.6022 31.0278H12.0625C10.0217 31.0278 9.99902 30.8876 9.99902 28.8981V10.9352C9.99902 8.94568 10.0217 8.80554 12.0625 8.80554ZM15.5546 21.0278C14.9409 21.0278 14.4435 21.5252 14.4435 22.1389C14.4435 22.7525 14.9409 23.25 15.5546 23.25H23.3324C23.946 23.25 24.4435 22.7525 24.4435 22.1389C24.4435 21.5252 23.946 21.0278 23.3324 21.0278H15.5546ZM15.5546 25.4722C14.9409 25.4722 14.4435 25.9697 14.4435 26.5833C14.4435 27.197 14.9409 27.6944 15.5546 27.6944H18.8879C19.5016 27.6944 19.999 27.197 19.999 26.5833C19.999 25.9697 19.5016 25.4722 18.8879 25.4722H15.5546Z" fill="#ED6240"/>
<path d="M14.2852 11.0278H23.0399C23.434 11.0278 23.8154 11.1675 24.1162 11.422L29.4091 15.8989C29.7835 16.2156 29.9995 16.681 29.9995 17.1714V31.1204C29.9995 33.1099 29.9767 33.2501 27.936 33.2501H14.2852C12.2444 33.2501 12.2217 33.1099 12.2217 31.1204V13.1575C12.2217 11.168 12.2444 11.0278 14.2852 11.0278ZM15.555 21.0278C14.9414 21.0278 14.4439 21.5253 14.4439 22.1389C14.4439 22.7526 14.9414 23.2501 15.555 23.2501H23.3328C23.9464 23.2501 24.4439 22.7526 24.4439 22.1389C24.4439 21.5253 23.9464 21.0278 23.3328 21.0278H15.555ZM15.555 25.4723C14.9414 25.4723 14.4439 25.9697 14.4439 26.5834C14.4439 27.197 14.9414 27.6945 15.555 27.6945H18.8883C19.502 27.6945 19.9995 27.197 19.9995 26.5834C19.9995 25.9697 19.502 25.4723 18.8883 25.4723H15.555Z" fill="#ED6240"/>
</g>
<defs>
<clipPath id="clip0_270_4160">
<rect width="26.6667" height="26.6667" fill="white" transform="translate(6.66699 7.69446)"/>
</clipPath>
</defs>
</svg>
