<svg width="40" height="41" viewBox="0 0 40 41" fill="none" xmlns="http://www.w3.org/2000/svg">
<rect y="0.75" width="40" height="40" rx="4.0001" fill="#EEFBF0"/>
<g clip-path="url(#clip0_270_4127)">
<path opacity="0.3" d="M26.6671 23.2502C24.8262 23.2502 23.3338 21.7578 23.3338 19.9168C23.3338 18.0759 24.8262 16.5835 26.6671 16.5835C28.5081 16.5835 30.0004 18.0759 30.0004 19.9168C30.0004 21.7578 28.5081 23.2502 26.6671 23.2502ZM16.6671 19.9168C14.2125 19.9168 12.2227 17.927 12.2227 15.4724C12.2227 13.0178 14.2125 11.028 16.6671 11.028C19.1217 11.028 21.1115 13.0178 21.1115 15.4724C21.1115 17.927 19.1217 19.9168 16.6671 19.9168Z" fill="#87C027"/>
<path d="M26.2239 24.3623C30.0089 24.4037 33.0994 26.3173 33.332 30.3616C33.3414 30.5245 33.332 31.0283 32.7292 31.0283H28.4448C28.4448 28.5273 27.6184 26.2192 26.2239 24.3623ZM6.66772 30.1385C7.09839 24.8355 11.4025 22.1394 16.6485 22.1394C21.9683 22.1394 26.3391 24.6874 26.6647 30.1394C26.6776 30.3566 26.6647 31.0283 25.83 31.0283C21.7127 31.0283 15.5945 31.0283 7.47533 31.0283C7.19667 31.0283 6.64426 30.4274 6.66772 30.1385Z" fill="#87C027"/>
</g>
<defs>
<clipPath id="clip0_270_4127">
<rect width="26.6667" height="26.6667" fill="white" transform="translate(6.66699 7.69446)"/>
</clipPath>
</defs>
</svg>
